<svg width="512" height="414" viewBox="0 0 512 414" fill="none" xmlns="http://www.w3.org/2000/svg">
<path d="M489.577 216.408C500.744 216.408 510.008 224.554 511.751 235.228C511.87 236.909 511.953 238.596 512 240.29C508.459 334.167 408.433 413.581 262.74 413.581C261.517 413.787 260.261 413.894 258.979 413.894C246.57 413.894 236.511 403.835 236.511 391.426C236.511 379.017 246.57 368.957 258.979 368.957C361.861 368.957 467.109 325.794 467.109 238.876C467.109 226.467 477.168 216.408 489.577 216.408Z" fill="white"/>
<path d="M267.257 189.209C267.257 266.275 204.782 328.75 127.716 328.75C79.3841 328.75 36.7915 304.178 11.7487 266.846C27.0803 344.056 117.728 404.944 231.554 413.932C226.523 407.808 223.503 399.969 223.503 391.426C223.503 371.832 239.386 355.949 258.979 355.949C354.766 355.949 454.101 317.516 454.101 238.876C454.101 219.283 469.984 203.399 489.577 203.399C495.717 203.399 501.492 204.959 506.529 207.704C482.343 130.239 381.492 72.1357 260.753 72.1357C243.014 72.1357 225.704 73.3899 209.003 75.7755C244.279 101.099 267.257 142.471 267.257 189.209Z" fill="white"/>
<path d="M100.123 64.4814L83.3701 0L62.7928 79.202C25.2066 101.432 0 142.377 0 189.209C0 259.744 57.1803 316.925 127.716 316.925C198.251 316.925 255.432 259.744 255.432 189.209C255.432 142.377 230.225 101.432 192.639 79.2021L172.062 0L155.309 64.4814C146.423 62.5245 137.19 61.4929 127.716 61.4929C118.242 61.4929 109.009 62.5245 100.123 64.4814Z" fill="white"/>
</svg>
